<svg width="512" height="512" viewBox="0 0 512 512" fill="none" xmlns="http://www.w3.org/2000/svg">
<g id="pressure-gauge 1">
<g id="Group">
<path id="Vector" d="M354 141C354 121.617 348.252 102.67 337.484 86.5541C326.716 70.4381 311.41 57.8772 293.503 50.4598C275.596 43.0424 255.891 41.1017 236.881 44.8831C217.871 48.6644 200.409 57.998 186.704 71.7036C172.998 85.4091 163.664 102.871 159.883 121.881C156.102 140.891 158.042 160.596 165.46 178.503C172.877 196.41 185.438 211.716 201.554 222.484C217.67 233.252 236.617 239 256 239C281.982 238.97 306.892 228.636 325.264 210.264C343.636 191.892 353.97 166.982 354 141ZM187.068 188.872L191.068 186.56C192.63 185.609 193.757 184.085 194.21 182.313C194.662 180.542 194.403 178.664 193.489 177.08C192.575 175.497 191.077 174.334 189.316 173.841C187.556 173.348 185.672 173.563 184.068 174.44L180.068 176.74C175.791 167.701 173.179 157.966 172.356 148H177C178.857 148 180.637 147.263 181.95 145.95C183.263 144.637 184 142.857 184 141C184 139.144 183.263 137.363 181.95 136.05C180.637 134.738 178.857 134 177 134H172.356C173.188 124.033 175.809 114.297 180.096 105.26L184.096 107.56C184.89 108.027 185.769 108.332 186.682 108.456C187.594 108.581 188.523 108.522 189.413 108.284C190.302 108.045 191.136 107.632 191.864 107.068C192.593 106.505 193.202 105.802 193.656 105C194.121 104.206 194.424 103.327 194.547 102.415C194.67 101.502 194.611 100.575 194.373 99.6853C194.135 98.796 193.723 97.9629 193.16 97.2341C192.598 96.5054 191.896 95.8956 191.096 95.44L187.096 93.128C192.817 84.9191 199.947 77.7889 208.156 72.068L210.468 76.068C211.419 77.6296 212.943 78.7572 214.715 79.2096C216.486 79.6621 218.364 79.4034 219.948 78.4889C221.531 77.5745 222.694 76.0769 223.187 74.3164C223.68 72.5558 223.465 70.6721 222.588 69.068L220.288 65.068C229.325 60.7815 239.061 58.1595 249.028 57.328V62C249.028 63.8565 249.765 65.637 251.078 66.9498C252.391 68.2625 254.172 69 256.028 69C257.885 69 259.665 68.2625 260.978 66.9498C262.291 65.637 263.028 63.8565 263.028 62V57.356C272.995 58.1875 282.731 60.8095 291.768 65.096L289.468 69.096C288.983 69.8928 288.662 70.7786 288.524 71.7013C288.386 72.6239 288.434 73.5649 288.664 74.4688C288.895 75.3727 289.304 76.2214 289.868 76.9649C290.431 77.7084 291.138 78.3318 291.946 78.7983C292.754 79.2649 293.647 79.5653 294.572 79.6819C295.498 79.7984 296.437 79.7288 297.336 79.477C298.234 79.2252 299.073 78.7965 299.803 78.2158C300.533 77.6352 301.14 76.9145 301.588 76.096L303.9 72.096C312.109 77.8169 319.239 84.9471 324.96 93.156L320.96 95.468C319.628 96.2434 318.588 97.4361 318.001 98.8617C317.414 100.287 317.313 101.867 317.714 103.355C318.114 104.844 318.994 106.159 320.217 107.098C321.44 108.036 322.938 108.546 324.48 108.548C325.704 108.536 326.903 108.205 327.96 107.588L331.96 105.288C336.224 114.32 338.827 124.046 339.644 134H335C333.143 134 331.363 134.738 330.05 136.05C328.738 137.363 328 139.144 328 141C328 142.857 328.738 144.637 330.05 145.95C331.363 147.263 333.143 148 335 148H339.644C338.812 157.967 336.191 167.703 331.904 176.74L327.904 174.44C326.3 173.563 324.416 173.348 322.656 173.841C320.895 174.334 319.397 175.497 318.483 177.08C317.569 178.664 317.31 180.542 317.762 182.313C318.215 184.085 319.342 185.609 320.904 186.56L324.904 188.872C317.191 200.019 306.891 209.129 294.885 215.421C282.879 221.714 269.527 225.001 255.972 225.001C242.417 225.001 229.065 221.714 217.059 215.421C205.053 209.129 194.753 200.019 187.04 188.872H187.068Z" fill="#FFFAFA"/>
<path id="Arrow" d="M246.5 157.456C250.865 159.972 256.051 160.652 260.917 159.348C265.784 158.044 269.934 154.861 272.456 150.5C276.032 144.296 282.928 113.484 284.956 104.188C285.274 102.737 285.122 101.223 284.522 99.8637C283.922 98.5048 282.905 97.372 281.619 96.6292C280.333 95.8863 278.843 95.5718 277.367 95.7312C275.89 95.8906 274.502 96.5157 273.404 97.516C266.368 103.916 243.128 125.296 239.544 131.516C237.037 135.881 236.361 141.061 237.665 145.923C238.968 150.784 242.145 154.931 246.5 157.456ZM251.66 138.52C256.123 133.203 260.942 128.196 266.084 123.532C264.616 130.321 262.692 137.003 260.324 143.532C259.653 144.664 258.564 145.485 257.291 145.819C256.019 146.153 254.666 145.972 253.526 145.315C252.387 144.658 251.552 143.579 251.202 142.311C250.853 141.043 251.017 139.688 251.66 138.54V138.52Z" fill="#FFFAFA"/>
<path id="Vector_2" d="M287 188.26C286.999 186.404 286.261 184.624 284.949 183.311C283.636 181.999 281.856 181.261 280 181.26H232C230.143 181.26 228.363 181.998 227.05 183.31C225.737 184.623 225 186.403 225 188.26C225 190.117 225.737 191.897 227.05 193.21C228.363 194.523 230.143 195.26 232 195.26H280C281.856 195.259 283.636 194.521 284.949 193.209C286.261 191.896 286.999 190.116 287 188.26Z" fill="#FFFAFA"/>
<path id="Vector_3" d="M486 341H462C460.144 341.001 458.364 341.739 457.051 343.051C455.739 344.364 455.001 346.144 455 348V359H341.8C340.215 352.183 336.371 346.102 330.894 341.745C325.416 337.388 318.627 335.011 311.628 335H287V287H298C299.856 286.999 301.636 286.261 302.949 284.949C304.261 283.636 304.999 281.856 305 280V252.692C330.651 241.442 351.65 221.709 364.47 196.805C377.291 171.902 381.151 143.346 375.404 115.932C369.657 88.5184 354.652 63.9172 332.909 46.2599C311.166 28.6026 284.01 18.9647 256 18.9647C227.99 18.9647 200.834 28.6026 179.091 46.2599C157.348 63.9172 142.343 88.5184 136.596 115.932C130.849 143.346 134.709 171.902 147.53 196.805C160.35 221.709 181.349 241.442 207 252.692V280C207.001 281.856 207.739 283.636 209.051 284.949C210.364 286.261 212.144 286.999 214 287H225V335H200.4C193.401 335.011 186.612 337.388 181.134 341.745C175.657 346.102 171.813 352.183 170.228 359H57V348C56.9989 346.144 56.2611 344.364 54.9486 343.051C53.6361 341.739 51.8562 341.001 50 341H26C24.1438 341.001 22.3639 341.739 21.0514 343.051C19.7389 344.364 19.0011 346.144 19 348V480C19.0011 481.856 19.7389 483.636 21.0514 484.949C22.3639 486.261 24.1438 486.999 26 487H50C51.8562 486.999 53.6361 486.261 54.9486 484.949C56.2611 483.636 56.9989 481.856 57 480V469H170.2C171.785 475.817 175.629 481.898 181.106 486.255C186.584 490.612 193.373 492.989 200.372 493H311.6C318.599 492.989 325.388 490.612 330.866 486.255C336.343 481.898 340.187 475.817 341.772 469H454.972V480C454.973 481.856 455.711 483.636 457.023 484.949C458.336 486.261 460.116 486.999 461.972 487H485.972C487.828 486.999 489.608 486.261 490.921 484.949C492.233 483.636 492.971 481.856 492.972 480V348C492.971 346.149 492.237 344.373 490.93 343.061C489.624 341.75 487.851 341.008 486 341ZM148 141C148 119.64 154.334 98.7589 166.201 80.9984C178.068 63.2379 194.936 49.3953 214.67 41.221C234.405 33.0468 256.12 30.908 277.07 35.0752C298.02 39.2424 317.263 49.5284 332.368 64.6325C347.472 79.7365 357.758 98.9803 361.925 119.93C366.092 140.88 363.953 162.595 355.779 182.33C347.605 202.064 333.762 218.932 316.002 230.799C298.241 242.666 277.36 249 256 249C227.366 248.968 199.915 237.579 179.668 217.332C159.421 197.085 148.032 169.634 148 141ZM221 257.86C243.83 264.713 268.17 264.713 291 257.86V273H221V257.86ZM239 287H273V335H239V287ZM43 473H33V355H43V473ZM57 373H169.4V455H57V373ZM328.6 462C328.595 466.507 326.802 470.828 323.615 474.015C320.428 477.202 316.107 478.995 311.6 479H200.4C195.893 478.995 191.572 477.202 188.385 474.015C185.198 470.828 183.405 466.507 183.4 462V366C183.405 361.493 185.198 357.172 188.385 353.985C191.572 350.798 195.893 349.005 200.4 349H311.6C316.107 349.005 320.428 350.798 323.615 353.985C326.802 357.172 328.595 361.493 328.6 366V462ZM342.6 455V373H455V455H342.6ZM479 473H469V355H479V473Z" fill="#FFFAFA"/>
<path id="Vector_4" d="M311.6 412.328C309.743 412.328 307.963 413.066 306.65 414.378C305.337 415.691 304.6 417.471 304.6 419.328V445.328C304.6 447.185 305.337 448.965 306.65 450.278C307.963 451.59 309.743 452.328 311.6 452.328C313.457 452.328 315.237 451.59 316.55 450.278C317.862 448.965 318.6 447.185 318.6 445.328V419.328C318.599 417.472 317.861 415.692 316.549 414.379C315.236 413.067 313.456 412.329 311.6 412.328Z" fill="white"/>
</g>
</g>
</svg>
